<svg xmlns="http://www.w3.org/2000/svg" width="188.02" height="22.7" viewBox="0 0 188.02 22.7">
  <title>blog</title>
  <path d="M33.25,23.28a.22.22,0,0,1-.11.22l-3.63,2.57c-.3.21-.59.44-.91.63h-.17a1,1,0,0,1-.24-.16l-3.76-2.91a.21.21,0,0,1-.09-.18V18.72s0-.07,0-.09-.07,0-.09,0l-3.42,2.1a.56.56,0,0,1-.61,0l-3.42-2.1s-.05-.05-.08,0,0,.06,0,.09v4.7a.27.27,0,0,1-.11.22L13.24,26.2a8.33,8.33,0,0,1-.67.5H12.4l-.24-.15L7.84,23.49a.2.2,0,0,1-.1-.18c0-.16,0-14.4,0-15.37,0-.39.1-.34.37-.58h0L11.89,4.1c.15-.13.18-.13.34,0l0,0,8.12,5.53a.11.11,0,0,0,.15,0l8.18-5.57c.13-.09.17-.08.29,0l.39.34L33,7.55c.07.06.22.17.22.27m-24.86,8c0,1.09,0,2.3,0,3.51,0,.24,0,.49,0,.74l0,3a.14.14,0,0,0,.08.14l.55.37,3,2.12s0,.06.08.05,0-.07,0-.1V24.35l0-3.74,0-4.86a.86.86,0,0,1,0-.16.3.3,0,0,1,.37-.27.77.77,0,0,1,.25.1l1.33.81,6.42,3.93a.17.17,0,0,0,.21,0l7.73-4.73a.9.9,0,0,1,.27-.11.31.31,0,0,1,.37.24.86.86,0,0,1,0,.16v1.37l0,3.77,0,4.75s0,.08,0,.1.06,0,.08-.05l2.45-1.73c.35-.25.71-.49,1.05-.76a.29.29,0,0,0,.13-.27c0-.31,0-.62,0-.94l0-2.21c0-.73,0-1.47,0-2.2l0-2.27c0-.73,0-1.45,0-2.18s0-1.45,0-2.18,0-1.18,0-1.77l0-.8c0-.09,0-.1-.09,0l0,0-6,3.87-5.65,3.66a.51.51,0,0,1-.58,0L18.86,15,8.58,8.31s-.05-.06-.09,0,0,.06,0,.09v.8l0,4.43Z" transform="translate(-7.74 -4)" style="fill: #f1718c"/>
  <g>
    <path d="M50.54,11.13a2.6,2.6,0,0,1,.06.56v.47a2.2,2.2,0,0,1-1.15,2,7.53,7.53,0,0,1-3.66.68v.43H51a.54.54,0,0,1,.42.18.59.59,0,0,1,.17.43v1.46a.57.57,0,0,1-.17.44.54.54,0,0,1-.42.17H36.56a.57.57,0,0,1-.43-.17.6.6,0,0,1-.17-.44V15.86a.63.63,0,0,1,.17-.43.58.58,0,0,1,.43-.18H41.8v-.43a7.53,7.53,0,0,1-3.66-.68,2.18,2.18,0,0,1-1.15-2v-.47a3.43,3.43,0,0,1,0-.56h-.19a.6.6,0,0,1-.44-.18.58.58,0,0,1-.18-.43V9.22a.65.65,0,0,1,.18-.46.61.61,0,0,1,.44-.19h5V8.09A.61.61,0,0,1,42,7.66a.56.56,0,0,1,.42-.18h2.72a.61.61,0,0,1,.61.61v.48h5a.59.59,0,0,1,.43.19.65.65,0,0,1,.18.46v1.3a.61.61,0,0,1-.61.61Zm-.27,9.81a.64.64,0,0,1,.43.15.51.51,0,0,1,.17.37v1.78a.45.45,0,0,1-.17.36.69.69,0,0,1-.43.13H38.57a1.87,1.87,0,0,1-.71-.13,2,2,0,0,1-.58-.36,1.38,1.38,0,0,1-.56-1.11V19.07a.42.42,0,0,1,.2-.36.72.72,0,0,1,.45-.15h2.68a.64.64,0,0,1,.43.15.43.43,0,0,1,.18.36v1.87Zm-4.39-8.62a.79.79,0,0,0,.65-.21.59.59,0,0,0,.16-.35v-.07a.59.59,0,0,0-.16-.35.79.79,0,0,0-.65-.21H41.63a.78.78,0,0,0-.59.23.52.52,0,0,0-.14.33v.07a.57.57,0,0,0,.16.36.87.87,0,0,0,.68.2Z" transform="translate(-7.74 -4)"/>
    <path d="M58.82,12l-.16.86a4.83,4.83,0,0,1,2.08,1,6.17,6.17,0,0,1,1.52,2,11.57,11.57,0,0,1,.93,3,20,20,0,0,1,.3,3.79.81.81,0,0,1-.14.46.61.61,0,0,1-.55.21H60.44a.92.92,0,0,1-.58-.15.63.63,0,0,1-.19-.53c-.05-3.48-.62-5.43-1.73-5.85l-1.1,5.92a.71.71,0,0,1-.24.45.65.65,0,0,1-.44.16H53.6a.57.57,0,0,1-.46-.17.48.48,0,0,1-.09-.44L55,12H53.82a.61.61,0,0,1-.61-.61v-2a.65.65,0,0,1,.18-.46.59.59,0,0,1,.43-.19h9a.61.61,0,0,1,.44.19.65.65,0,0,1,.18.46v2a.58.58,0,0,1-.18.43.6.6,0,0,1-.44.18ZM67.5,8.57a.58.58,0,0,1,.43.18.6.6,0,0,1,.18.44v4.39h1.21a.56.56,0,0,1,.43.19.63.63,0,0,1,.18.46v2.19a.61.61,0,0,1-.61.61H68.11V23.3a.57.57,0,0,1-.18.44.61.61,0,0,1-.43.17H64.78a.57.57,0,0,1-.42-.17.57.57,0,0,1-.17-.44V9.19a.6.6,0,0,1,.17-.44.54.54,0,0,1,.42-.18Z" transform="translate(-7.74 -4)"/>
    <path d="M89.71,20.6a.54.54,0,0,1,.42.18.58.58,0,0,1,.18.43v1.91a.6.6,0,0,1-.6.61H75.24a.57.57,0,0,1-.42-.17.57.57,0,0,1-.17-.44V21.21a.57.57,0,0,1,.17-.43.54.54,0,0,1,.42-.18Zm-7.27-8.79v5.91a.61.61,0,0,1-.61.61H79.38a.65.65,0,0,1-.46-.18.56.56,0,0,1-.19-.43V11.81H75.89a.57.57,0,0,1-.43-.18.56.56,0,0,1-.19-.43v-2a.62.62,0,0,1,.19-.46.57.57,0,0,1,.43-.19H89a.62.62,0,0,1,.46.18.65.65,0,0,1,.18.44V17.9a.62.62,0,0,1-.18.43.6.6,0,0,1-.44.18H86.58a.65.65,0,0,1-.46-.18.56.56,0,0,1-.19-.43V11.81Z" transform="translate(-7.74 -4)"/>
    <path d="M97,11.4l-.14.36a8,8,0,0,1,1.83.21,5.54,5.54,0,0,1,1.62.64,4,4,0,0,1,1.2,1.13,3.35,3.35,0,0,1,.57,1.62.79.79,0,0,1-.07.46c-.06.14-.27.21-.62.21h-2a1.47,1.47,0,0,1-.56-.08,1.29,1.29,0,0,1-.36-.43,2.05,2.05,0,0,0-.4-.46,2.39,2.39,0,0,0-.62-.38,3.78,3.78,0,0,0-.81-.24,2.66,2.66,0,0,0-.89,0l-.37,1c-.16.41-.39.62-.69.62H92.18a.63.63,0,0,1-.49-.19.4.4,0,0,1-.07-.43l1.57-4h-.8a.6.6,0,0,1-.43-.18.58.58,0,0,1-.18-.43V9.22A.65.65,0,0,1,92,8.76a.61.61,0,0,1,.43-.19H101a.59.59,0,0,1,.43.19.65.65,0,0,1,.18.46v1.57a.61.61,0,0,1-.61.61Zm10,11.77a.6.6,0,0,1-.16.44.57.57,0,0,1-.43.17H103.7a.56.56,0,0,1-.43-.17.54.54,0,0,1-.18-.44V19.88h-9.6A.65.65,0,0,1,93,19.7a.62.62,0,0,1-.19-.45v-1.8A.62.62,0,0,1,93,17a.65.65,0,0,1,.46-.18h13a.58.58,0,0,1,.43.18.64.64,0,0,1,.16.45ZM103.12,10.7V9a.6.6,0,0,1,.18-.44.58.58,0,0,1,.43-.18h2.7a.62.62,0,0,1,.44.18A.64.64,0,0,1,107,9v6.57a.62.62,0,0,1-.17.44.66.66,0,0,1-.44.17h-2.7a.61.61,0,0,1-.43-.17.59.59,0,0,1-.18-.44V14h-1a.61.61,0,0,1-.62-.61v-2a.68.68,0,0,1,.18-.46.59.59,0,0,1,.44-.19Z" transform="translate(-7.74 -4)"/>
    <path d="M114.78,8.57a4.15,4.15,0,0,1,1.55.29,3.51,3.51,0,0,1,1.24.81,3.63,3.63,0,0,1,.82,1.24,4.07,4.07,0,0,1,.3,1.57v7a3.94,3.94,0,0,1-.3,1.56,3.69,3.69,0,0,1-.82,1.23,3.51,3.51,0,0,1-1.24.81,4.15,4.15,0,0,1-1.55.29h-2.3a4.2,4.2,0,0,1-1.56-.29,3.65,3.65,0,0,1-2-2,4.13,4.13,0,0,1-.29-1.56v-7a4.26,4.26,0,0,1,.29-1.57,3.6,3.6,0,0,1,.81-1.24,3.66,3.66,0,0,1,1.23-.81,4.2,4.2,0,0,1,1.56-.29Zm-1.35,3.06a1.18,1.18,0,0,0-.29,0,1.14,1.14,0,0,0-.34.15.87.87,0,0,0-.27.32,1,1,0,0,0-.12.53v6.6a1,1,0,0,0,.12.53.88.88,0,0,0,.27.3,1.17,1.17,0,0,0,.34.16,1.81,1.81,0,0,0,.29,0h.44a2.08,2.08,0,0,0,.3,0,1.06,1.06,0,0,0,.34-.16.9.9,0,0,0,.28-.3,1,1,0,0,0,.12-.53v-6.6a1,1,0,0,0-.12-.53.89.89,0,0,0-.28-.32,1,1,0,0,0-.34-.15,1.33,1.33,0,0,0-.3,0Zm9.72-3.06a.61.61,0,0,1,.62.62V23.3a.57.57,0,0,1-.18.44.64.64,0,0,1-.44.17h-2.71a.61.61,0,0,1-.43-.17.6.6,0,0,1-.17-.44V9.19a.64.64,0,0,1,.17-.44.58.58,0,0,1,.43-.18Z" transform="translate(-7.74 -4)"/>
    <path d="M140.29,14.93a.54.54,0,0,1,.42.18.57.57,0,0,1,.17.43V17a.57.57,0,0,1-.17.44.57.57,0,0,1-.42.17H125.82a.6.6,0,0,1-.6-.61V15.54a.58.58,0,0,1,.18-.43.54.54,0,0,1,.42-.18Zm-.65-3.3a.61.61,0,0,1,.44.19.69.69,0,0,1,.17.46v1.46a.61.61,0,0,1-.17.43.6.6,0,0,1-.44.18H127.91a2.19,2.19,0,0,1-1.5-.47,2,2,0,0,1-.52-1.51V9.19a.64.64,0,0,1,.17-.44.58.58,0,0,1,.42-.18h2.76a.58.58,0,0,1,.43.18.6.6,0,0,1,.18.44v2.44Zm-.1,9.31a.64.64,0,0,1,.42.15.51.51,0,0,1,.17.37v1.78a.45.45,0,0,1-.17.36.68.68,0,0,1-.42.13H127.83a1.9,1.9,0,0,1-.71-.13,2,2,0,0,1-.58-.36,1.39,1.39,0,0,1-.41-.5,1.31,1.31,0,0,1-.15-.61V18.71a.44.44,0,0,1,.2-.36.71.71,0,0,1,.45-.14h2.68a.64.64,0,0,1,.43.14.44.44,0,0,1,.18.36v2.23Z" transform="translate(-7.74 -4)"/>
    <path d="M161.33,14.35a.58.58,0,0,1,.43.18.63.63,0,0,1,.17.43v1.23a.6.6,0,0,1-.17.44.61.61,0,0,1-.43.17H146.86a.57.57,0,0,1-.42-.17.57.57,0,0,1-.17-.44V15a.59.59,0,0,1,.17-.43.54.54,0,0,1,.42-.18Zm-.07-2.27a2,2,0,0,1-.52,1.51,2.13,2.13,0,0,1-1.49.47H149a2.1,2.1,0,0,1-1.49-.47,2,2,0,0,1-.53-1.51v-3a.64.64,0,0,1,.17-.44.58.58,0,0,1,.43-.18h2.7a.6.6,0,0,1,.43.18.6.6,0,0,1,.18.44v.05h6.51V9.1a.6.6,0,0,1,.18-.44.54.54,0,0,1,.42-.18h2.7a.58.58,0,0,1,.43.18.6.6,0,0,1,.18.44Zm-.72,5.12a.68.68,0,0,1,.45.15.46.46,0,0,1,.18.37V20.8a.47.47,0,0,1-.18.35.68.68,0,0,1-.45.15h-9.83v.36h9.92a.73.73,0,0,1,.45.14.45.45,0,0,1,.18.36v1.08a.43.43,0,0,1-.18.36.73.73,0,0,1-.45.13H148.86a2.08,2.08,0,0,1-.71-.12,2,2,0,0,1-.59-.31,1.29,1.29,0,0,1-.39-.48,1.22,1.22,0,0,1-.15-.58V20.15a.46.46,0,0,1,.18-.37.66.66,0,0,1,.43-.15h9.85v-.35h-9.94a.66.66,0,0,1-.43-.15.45.45,0,0,1-.18-.35V17.72a.46.46,0,0,1,.18-.37.66.66,0,0,1,.43-.15Zm-3.19-5.6v-.27h-6.51v.27Z" transform="translate(-7.74 -4)"/>
    <path d="M178.22,14.42a.61.61,0,0,1-.62.62h-9.86v.57h9.95a.61.61,0,0,1,.44.19.65.65,0,0,1,.18.46v1.82a.58.58,0,0,1-.18.43.6.6,0,0,1-.44.18H173V20.6h5.24a.58.58,0,0,1,.43.18.61.61,0,0,1,.17.43v1.91a.6.6,0,0,1-.17.44.61.61,0,0,1-.43.17H163.78a.57.57,0,0,1-.42-.17.57.57,0,0,1-.17-.44V21.21a.57.57,0,0,1,.17-.43.54.54,0,0,1,.42-.18H169V18.69h-2.11q-3.09,0-3.09-3.06V12.79a.63.63,0,0,1,.18-.46.56.56,0,0,1,.43-.19h9.86v-.52h-9.95a.58.58,0,0,1-.43-.18.6.6,0,0,1-.18-.44V9.22a.65.65,0,0,1,.18-.46.59.59,0,0,1,.43-.19h13.25a.64.64,0,0,1,.44.18.61.61,0,0,1,.19.44Z" transform="translate(-7.74 -4)"/>
    <path d="M195.17,20.6a.58.58,0,0,1,.43.18.61.61,0,0,1,.17.43v1.91a.6.6,0,0,1-.17.44.61.61,0,0,1-.43.17H180.7a.57.57,0,0,1-.42-.17.57.57,0,0,1-.17-.44V21.21a.57.57,0,0,1,.17-.43.54.54,0,0,1,.42-.18ZM181.35,12a.61.61,0,0,1-.61-.61V9.22a.65.65,0,0,1,.18-.46.59.59,0,0,1,.43-.19h13.16a.61.61,0,0,1,.45.18.6.6,0,0,1,.18.44V17.9a.58.58,0,0,1-.18.43.6.6,0,0,1-.44.18h-2.66a.65.65,0,0,1-.46-.18.59.59,0,0,1-.19-.43V12Z" transform="translate(-7.74 -4)"/>
  </g>
</svg>
