<svg version="1.1" id="레이어_1" xmlns="http://www.w3.org/2000/svg" xmlns:xlink="http://www.w3.org/1999/xlink" x="0px"
	 y="0px" viewBox="0 0 100 20" style="enable-background:new 0 0 100 20;" xml:space="preserve"><g>
<path fill="#F1718C" d="M24,17c0,0.1,0,0.1-0.1,0.2l-3.2,2.3c-0.3,0.2-0.5,0.4-0.8,0.6h-0.1c-0.1,0-0.1-0.1-0.2-0.1l-3.3-2.6
	c-0.1,0-0.1-0.1-0.1-0.2l0-2.3l0-1.9c0,0,0-0.1,0-0.1c0,0-0.1,0-0.1,0l-3,1.8c-0.2,0.1-0.4,0.1-0.5,0l-3-1.8c0,0,0,0-0.1,0
	c0,0,0,0.1,0,0.1l0,2.2v2c0,0.1,0,0.1-0.1,0.2l-2.9,2.3C6.3,19.7,6.2,19.9,6,20H5.8l-0.2-0.1l-3.8-2.7c-0.1,0-0.1-0.1-0.1-0.2
	c0-0.1,0-12.7,0-13.5c0-0.3,0.1-0.3,0.3-0.5c0,0,0,0,0,0l3.3-2.9C5.5,0,5.5,0,5.7,0.1c0,0,0,0,0,0L12.8,5c0,0,0.1,0,0.1,0L20,0.1
	c0.1-0.1,0.1-0.1,0.2,0l0.3,0.3l3.2,2.8C23.9,3.2,24,3.3,24,3.4 M2.3,10.4c0,1,0,2,0,3.1c0,0.2,0,0.4,0,0.6l0,2.6
	c0,0.1,0,0.1,0.1,0.1l0.5,0.3l2.6,1.9c0,0,0,0,0.1,0c0,0,0-0.1,0-0.1l0-1.1l0-3.3l0-4.3c0,0,0-0.1,0-0.1c0-0.2,0.2-0.3,0.3-0.2
	c0.1,0,0.2,0,0.2,0.1l1.2,0.7l5.6,3.5c0.1,0,0.1,0,0.2,0l6.7-4.2c0.1,0,0.1-0.1,0.2-0.1c0.2,0,0.3,0.1,0.3,0.2c0,0,0,0.1,0,0.1
	l0,1.2l0,3.3l0,4.2c0,0,0,0.1,0,0.1c0,0,0,0,0.1,0l2.1-1.5c0.3-0.2,0.6-0.4,0.9-0.7c0.1-0.1,0.1-0.1,0.1-0.2c0-0.3,0-0.5,0-0.8
	l0-1.9c0-0.6,0-1.3,0-1.9l0-2c0-0.6,0-1.3,0-1.9s0-1.3,0-1.9c0-0.5,0-1,0-1.6l0-0.7c0-0.1,0-0.1-0.1,0l0,0L18,7.2l-4.9,3.2
	c-0.2,0.1-0.3,0.1-0.5,0l-1.2-0.8l-9-5.9c0,0,0,0-0.1,0c0,0,0,0.1,0,0.1l0,0.7l0,3.9C2.3,8.5,2.3,10.4,2.3,10.4z"/>
	</g>
<g>
	<path d="M27.8,8.9c-0.3,0-0.5-0.1-0.7-0.3c-0.1-0.2-0.2-0.6-0.2-1.1c0-0.5,0.1-0.8,0.2-1.1c0.1-0.2,0.4-0.3,0.7-0.3h4.1
		c1.6,0,2.8,0.4,3.5,1.1c0.7,0.7,1.1,1.9,1.1,3.5v7.6c0,0.3-0.1,0.5-0.4,0.7c-0.3,0.1-0.6,0.2-1.1,0.2c-0.8,0-1.3-0.2-1.5-0.5
		c-0.6,0.2-1.2,0.4-1.8,0.5c-0.6,0.1-1.2,0.2-1.8,0.2c-0.6,0-1.2-0.1-1.7-0.3c-0.5-0.2-1-0.4-1.4-0.8c-0.4-0.4-0.7-0.8-1-1.4
		s-0.4-1.2-0.4-2c0-0.7,0.1-1.4,0.4-2c0.3-0.6,0.6-1,1.1-1.4c0.5-0.4,1-0.7,1.6-0.9c0.6-0.2,1.3-0.3,2-0.3c0.5,0,1,0,1.5,0.1
		c0.5,0.1,1,0.2,1.4,0.3v-0.4c0-0.6-0.1-1-0.4-1.3c-0.3-0.3-0.7-0.4-1.3-0.4H27.8z M30.6,13.3c-0.7,0-1.2,0.2-1.6,0.5
		c-0.4,0.3-0.5,0.7-0.5,1.3c0,0.5,0.1,0.9,0.4,1.2c0.3,0.3,0.7,0.5,1.3,0.5c0.6,0,1.1-0.1,1.7-0.2c0.5-0.1,1-0.3,1.5-0.4v-2.4
		c-0.4-0.1-0.9-0.2-1.3-0.3C31.6,13.3,31.1,13.3,30.6,13.3z"/>
	<path d="M42.2,18.5c0,0.2-0.1,0.4-0.3,0.5c-0.2,0.1-0.6,0.2-1.2,0.2c-0.6,0-1-0.1-1.2-0.2c-0.2-0.1-0.3-0.3-0.3-0.5V6.1h3.1v1.4
		c0.3-0.5,0.7-0.8,1.2-1.1c0.5-0.2,1-0.4,1.5-0.4h2.4c0.3,0,0.5,0.1,0.6,0.3C48,6.6,48,7,48,7.5C48,8,48,8.4,47.8,8.6
		c-0.1,0.2-0.3,0.3-0.6,0.3h-2.7c-0.3,0-0.6,0.1-0.9,0.2c-0.3,0.1-0.5,0.2-0.8,0.4c-0.2,0.2-0.4,0.4-0.5,0.7
		c-0.1,0.3-0.2,0.5-0.2,0.9V18.5z"/>
	<path d="M53.8,19.5c-0.4,0-0.8,0-1.3-0.1c-0.4-0.1-0.8-0.1-1.2-0.2c-0.4-0.1-0.8-0.2-1.1-0.4c-0.3-0.1-0.6-0.3-0.8-0.4
		c-0.3-0.2-0.4-0.4-0.5-0.5c-0.1-0.2,0-0.5,0.2-1c0.2-0.5,0.4-0.8,0.6-0.9c0.2-0.1,0.4-0.1,0.6,0c0.3,0.1,0.6,0.2,0.9,0.3
		c0.3,0.1,0.6,0.2,0.9,0.2c0.3,0.1,0.6,0.1,0.9,0.2c0.3,0,0.5,0.1,0.8,0.1c0.7,0,1.3-0.1,1.8-0.3c0.5-0.2,0.7-0.5,0.7-1
		c0-0.3-0.2-0.6-0.7-0.9c-0.4-0.3-1.1-0.6-1.9-0.9c-0.4-0.1-0.9-0.3-1.4-0.5c-0.5-0.2-1-0.5-1.4-0.8c-0.4-0.3-0.8-0.7-1.1-1.2
		c-0.3-0.5-0.4-1-0.4-1.6c0-0.6,0.1-1.2,0.4-1.7c0.3-0.5,0.6-0.9,1.1-1.3c0.5-0.3,1-0.6,1.6-0.8c0.6-0.2,1.2-0.3,1.9-0.3
		c0.4,0,0.8,0,1.2,0.1c0.4,0.1,0.8,0.2,1.2,0.3c0.4,0.1,0.7,0.2,1,0.4c0.3,0.1,0.6,0.3,0.7,0.4c0.1,0,0.2,0.1,0.2,0.2
		c0.1,0.1,0.1,0.1,0.1,0.2c0,0.1,0,0.2,0,0.4c0,0.2-0.1,0.4-0.2,0.6C58.4,8.6,58.2,8.9,58,9c-0.2,0.1-0.3,0.1-0.6,0
		c-0.5-0.2-1-0.4-1.5-0.5c-0.5-0.1-1-0.2-1.6-0.2c-0.5,0-0.9,0.1-1.3,0.3s-0.5,0.5-0.5,0.9c0,0.4,0.3,0.7,0.8,1
		c0.5,0.3,1.2,0.5,1.9,0.8c0.6,0.2,1.1,0.4,1.6,0.7c0.5,0.2,1,0.5,1.3,0.8c0.4,0.3,0.7,0.7,0.9,1.1s0.3,0.9,0.3,1.5
		c0,0.6-0.1,1.1-0.4,1.6c-0.3,0.5-0.7,0.9-1.2,1.3c-0.5,0.4-1.1,0.7-1.8,0.9C55.4,19.4,54.6,19.5,53.8,19.5z"/>
	<path d="M69.5,10.3c0-0.6-0.2-1-0.7-1.3c-0.5-0.3-1.1-0.5-1.8-0.5c-0.3,0-0.6,0-0.9,0.1S65.6,8.9,65.4,9c-0.2,0.1-0.4,0.3-0.6,0.4
		c-0.2,0.2-0.2,0.3-0.2,0.5v8.6c0,0.2-0.1,0.4-0.3,0.5c-0.2,0.1-0.6,0.2-1.2,0.2c-0.6,0-1-0.1-1.2-0.2c-0.2-0.1-0.3-0.3-0.3-0.5V0.7
		h3.1v6.1c0.4-0.3,0.9-0.5,1.4-0.7c0.6-0.2,1.2-0.3,1.9-0.3c0.8,0,1.4,0.1,2,0.4c0.6,0.3,1.1,0.6,1.5,1c0.4,0.4,0.7,0.9,0.9,1.5
		c0.2,0.6,0.3,1.2,0.3,1.8v8c0,0.2-0.1,0.4-0.3,0.5c-0.2,0.1-0.6,0.2-1.2,0.2c-0.6,0-1-0.1-1.2-0.2c-0.2-0.1-0.3-0.3-0.3-0.5V10.3z"
		/>
	<path d="M77,8.9c-0.3,0-0.5-0.1-0.7-0.3c-0.1-0.2-0.2-0.6-0.2-1.1c0-0.5,0.1-0.8,0.2-1.1c0.1-0.2,0.4-0.3,0.7-0.3h4.1
		c1.6,0,2.8,0.4,3.5,1.1c0.7,0.7,1.1,1.9,1.1,3.5v7.6c0,0.3-0.1,0.5-0.4,0.7c-0.3,0.1-0.6,0.2-1.1,0.2c-0.8,0-1.3-0.2-1.5-0.5
		c-0.6,0.2-1.2,0.4-1.8,0.5c-0.6,0.1-1.2,0.2-1.8,0.2c-0.6,0-1.2-0.1-1.7-0.3c-0.5-0.2-1-0.4-1.4-0.8c-0.4-0.4-0.7-0.8-1-1.4
		c-0.2-0.5-0.4-1.2-0.4-2c0-0.7,0.1-1.4,0.4-2c0.3-0.6,0.6-1,1.1-1.4c0.5-0.4,1-0.7,1.6-0.9c0.6-0.2,1.3-0.3,2-0.3
		c0.5,0,1,0,1.5,0.1c0.5,0.1,1,0.2,1.4,0.3v-0.4c0-0.6-0.1-1-0.4-1.3c-0.3-0.3-0.7-0.4-1.3-0.4H77z M79.8,13.3
		c-0.7,0-1.2,0.2-1.6,0.5c-0.4,0.3-0.5,0.7-0.5,1.3c0,0.5,0.1,0.9,0.4,1.2c0.3,0.3,0.7,0.5,1.3,0.5c0.6,0,1.1-0.1,1.7-0.2
		c0.5-0.1,1-0.3,1.5-0.4v-2.4c-0.4-0.1-0.9-0.2-1.3-0.3C80.8,13.3,80.3,13.3,79.8,13.3z"/>
	<path d="M88.4,0.7h3.2v17.7c0,0.2-0.1,0.4-0.4,0.5c-0.2,0.1-0.7,0.2-1.3,0.2c-0.6,0-1-0.1-1.2-0.2c-0.2-0.1-0.3-0.3-0.3-0.5V0.7z"
		/>
	<path d="M94.4,0.7h3.2v17.7c0,0.2-0.1,0.4-0.4,0.5c-0.2,0.1-0.7,0.2-1.3,0.2c-0.6,0-1-0.1-1.2-0.2c-0.2-0.1-0.3-0.3-0.3-0.5V0.7z"
		/>
</g>
</svg>
