<svg enable-background="new 0 0 567.419 567.419" fill="#777" version="1.1" viewBox="0 0 567.42 567.42" xml:space="preserve" xmlns="http://www.w3.org/2000/svg"><path d="m409.93 209.3c0 18.056-14.627 32.692-32.683 32.692-18.047 0-32.683-14.636-32.683-32.692s14.636-32.683 32.683-32.683c18.056 0 32.683 14.627 32.683 32.683z"></path><path d="m222.01 209.3c0 18.056-14.636 32.692-32.683 32.692s-32.683-14.636-32.683-32.692 14.636-32.683 32.683-32.683 32.683 14.627 32.683 32.683z"></path><path d="m308.7 451.47h-45.388c-57.483 0-104.25-46.205-104.25-103.01 0-7.443 6.034-13.468 13.468-13.468s13.468 6.025 13.468 13.468c0 42.659 33.958 76.078 77.317 76.078h45.388c43.359 0 77.317-32.863 77.317-74.821 0-7.443 6.034-13.468 13.468-13.468 7.443 0 13.468 6.025 13.468 13.468 1e-3 57.06-45.792 101.76-104.25 101.76z"></path><path d="m283.71 567.42c-156.4 0-283.64-127.28-283.64-283.71 0-156.43 127.24-283.7 283.64-283.7 156.39 0 283.63 127.28 283.63 283.7 0 156.44-127.24 283.71-283.63 283.71zm0-540.47c-141.55 0-256.7 115.18-256.7 256.76 0 141.59 115.15 256.77 256.7 256.77 141.54 0 256.7-115.18 256.7-256.77 0-141.58-115.15-256.76-256.7-256.76z"></path></svg>